<?xml version="1.0" encoding="UTF-8" standalone="no"?>
<svg
   xmlns:dc="http://purl.org/dc/elements/1.1/"
   xmlns:cc="http://creativecommons.org/ns#"
   xmlns:rdf="http://www.w3.org/1999/02/22-rdf-syntax-ns#"
   xmlns:svg="http://www.w3.org/2000/svg"
   xmlns="http://www.w3.org/2000/svg"
   xmlns:xlink="http://www.w3.org/1999/xlink"
   xmlns:sodipodi="http://sodipodi.sourceforge.net/DTD/sodipodi-0.dtd"
   xmlns:inkscape="http://www.inkscape.org/namespaces/inkscape"
   inkscape:export-ydpi="9600"
   inkscape:export-xdpi="9600"
   inkscape:export-filename="/home/victor/Documents/Apps/theSlate/readme/splash.png"
   sodipodi:docname="splash.svg"
   inkscape:version="1.0.2 (e86c870879, 2021-01-15, custom)"
   id="svg843"
   version="1.1"
   viewBox="0 0 5.2916665 2.6458334"
   height="10"
   width="20">
  <defs
     id="defs837">
    <linearGradient
       gradientUnits="userSpaceOnUse"
       y2="294.35416"
       x2="5.2916665"
       y1="296.99997"
       x1="0"
       id="linearGradient2317"
       xlink:href="#linearGradient9085"
       inkscape:collect="always" />
    <linearGradient
       inkscape:collect="always"
       id="linearGradient9085">
      <stop
         style="stop-color:#6464ff;stop-opacity:1"
         offset="0"
         id="stop9081" />
      <stop
         style="stop-color:#c8c8ff;stop-opacity:1"
         offset="1"
         id="stop9083" />
    </linearGradient>
    <linearGradient
       gradientUnits="userSpaceOnUse"
       y2="294.35419"
       x2="5.2916665"
       y1="296.99997"
       x1="0"
       id="linearGradient2317-3-2"
       xlink:href="#linearGradient9085"
       inkscape:collect="always"
       gradientTransform="matrix(0.10000001,0,0,0.80001203,0.26458333,58.867237)" />
    <linearGradient
       gradientUnits="userSpaceOnUse"
       y2="294.35416"
       x2="0.52916664"
       y1="296.47083"
       x1="0.52916664"
       id="linearGradient2515"
       xlink:href="#linearGradient9209"
       inkscape:collect="always" />
    <linearGradient
       inkscape:collect="always"
       id="linearGradient9209">
      <stop
         style="stop-color:#0064d9;stop-opacity:1"
         offset="0"
         id="stop9205" />
      <stop
         style="stop-color:#22c8ff;stop-opacity:1"
         offset="1"
         id="stop9207" />
    </linearGradient>
    <linearGradient
       gradientUnits="userSpaceOnUse"
       y2="294.35416"
       x2="0.52916664"
       y1="296.47083"
       x1="0.52916664"
       id="linearGradient2515-7"
       xlink:href="#linearGradient943"
       inkscape:collect="always"
       gradientTransform="translate(0)" />
    <linearGradient
       gradientTransform="matrix(0.02127609,0,0,0.02127609,78.132678,284.60279)"
       gradientUnits="userSpaceOnUse"
       y2="-3.5959179"
       x2="27.313709"
       y1="35.595917"
       x1="4.6862917"
       id="linearGradient822-63-3-2"
       xlink:href="#linearGradient943"
       inkscape:collect="always" />
    <linearGradient
       inkscape:collect="always"
       id="linearGradient943">
      <stop
         style="stop-color:#646464;stop-opacity:1"
         offset="0"
         id="stop939" />
      <stop
         style="stop-color:#c8c8c8;stop-opacity:1"
         offset="1"
         id="stop941" />
    </linearGradient>
  </defs>
  <sodipodi:namedview
     inkscape:document-rotation="0"
     inkscape:window-maximized="1"
     inkscape:window-y="725"
     inkscape:window-x="3840"
     inkscape:window-height="1404"
     inkscape:window-width="2560"
     showguides="true"
     units="px"
     showgrid="true"
     inkscape:current-layer="layer1"
     inkscape:document-units="mm"
     inkscape:cy="5.9092279"
     inkscape:cx="14.206791"
     inkscape:zoom="44.8"
     inkscape:pageshadow="2"
     inkscape:pageopacity="0.0"
     borderopacity="1.0"
     bordercolor="#666666"
     pagecolor="#ffffff"
     id="base">
    <inkscape:grid
       enabled="false"
       id="grid1391"
       type="xygrid" />
    <inkscape:grid
       enabled="false"
       empspacing="1"
       dotted="true"
       originx="0.13229167"
       originy="0.13229167"
       id="grid1393"
       type="xygrid" />
  </sodipodi:namedview>
  <metadata
     id="metadata840">
    <rdf:RDF>
      <cc:Work
         rdf:about="">
        <dc:format>image/svg+xml</dc:format>
        <dc:type
           rdf:resource="http://purl.org/dc/dcmitype/StillImage" />
        <dc:title></dc:title>
      </cc:Work>
    </rdf:RDF>
  </metadata>
  <g
     transform="translate(0,-294.35415)"
     id="layer1"
     inkscape:groupmode="layer"
     inkscape:label="Layer 1">
    <rect
       y="294.35416"
       x="0"
       height="2.6458333"
       width="5.2916665"
       id="rect2664-1"
       style="opacity:1;fill:#ffffff;fill-opacity:1;stroke:none;stroke-width:0.26499999;stroke-linecap:round;stroke-linejoin:round;stroke-miterlimit:4;stroke-dasharray:none;stroke-dashoffset:0;stroke-opacity:1;paint-order:normal" />
    <g
       id="g2199">
      <circle
         inkscape:export-ydpi="2165.5593"
         inkscape:export-xdpi="2165.5593"
         inkscape:export-filename="/home/victor/newcontemporary.png"
         cy="284.94318"
         cx="78.473091"
         id="path814-5-6"
         style="fill:url(#linearGradient822-63-3-2);fill-opacity:1;stroke:none;stroke-width:0.264583;stroke-linecap:round;stroke-linejoin:round;stroke-miterlimit:4;stroke-dasharray:none;stroke-dashoffset:0;stroke-opacity:1;paint-order:normal"
         r="0.34041736"
         transform="rotate(15)" />
      <path
         inkscape:export-ydpi="2165.5593"
         inkscape:export-xdpi="2165.5593"
         inkscape:export-filename="/home/victor/newcontemporary.png"
         inkscape:connector-curvature="0"
         id="rect824-9-2-7"
         d="m 2.0724764,295.46214 c -0.045541,-0.0122 -0.092029,0.0146 -0.1042295,0.0602 l -0.085193,0.31795 a 0.34041736,0.34041736 0 0 0 0.07929,0.0329 0.34041736,0.34041736 0 0 0 0.4169252,-0.24071 0.34041736,0.34041736 0 0 0 0.011309,-0.0851 z"
         style="fill:#000000;fill-opacity:1;stroke:none;stroke-width:0.36;stroke-linecap:round;stroke-linejoin:round;stroke-miterlimit:4;stroke-dasharray:none;stroke-dashoffset:0;stroke-opacity:1;paint-order:normal" />
      <path
         style="color:#000000;font-style:normal;font-variant:normal;font-weight:normal;font-stretch:normal;font-size:medium;line-height:normal;font-family:sans-serif;font-variant-ligatures:normal;font-variant-position:normal;font-variant-caps:normal;font-variant-numeric:normal;font-variant-alternates:normal;font-variant-east-asian:normal;font-feature-settings:normal;font-variation-settings:normal;text-indent:0;text-align:start;text-decoration:none;text-decoration-line:none;text-decoration-style:solid;text-decoration-color:#000000;letter-spacing:normal;word-spacing:normal;text-transform:none;writing-mode:lr-tb;direction:ltr;text-orientation:mixed;dominant-baseline:auto;baseline-shift:baseline;text-anchor:start;white-space:normal;shape-padding:0;shape-margin:0;inline-size:0;clip-rule:nonzero;display:inline;overflow:visible;visibility:visible;isolation:auto;mix-blend-mode:normal;color-interpolation:sRGB;color-interpolation-filters:linearRGB;solid-color:#000000;solid-opacity:1;vector-effect:none;fill:#ffffff;fill-opacity:1;fill-rule:nonzero;stroke:none;stroke-width:0.999999;stroke-linecap:round;stroke-linejoin:round;stroke-miterlimit:4;stroke-dasharray:0.396875, 0.79375;stroke-dashoffset:2.06375;stroke-opacity:1;paint-order:normal;color-rendering:auto;image-rendering:auto;shape-rendering:auto;text-rendering:auto;enable-background:accumulate;stop-color:#000000"
         d="m 2.1099012,295.49997 a 0.01595706,0.01595706 0 0 0 -0.016648,0.0118 0.01595706,0.01595706 0 0 0 0.011308,0.0196 l 0.03094,0.008 a 0.01595706,0.01595706 0 0 0 0.019475,-0.0113 0.01595706,0.01595706 0 0 0 -0.011308,-0.0195 l -0.030783,-0.008 a 0.01595706,0.01595706 0 0 0 -0.00298,-4.8e-4 z m -0.062666,0.003 a 0.01595706,0.01595706 0 0 0 -0.00675,10e-4 l -0.00126,3.3e-4 a 0.01595866,0.01595866 0 0 0 -0.00141,8e-4 l -0.00722,0.004 a 0.01595866,0.01595866 0 0 0 -0.00126,8e-4 l -0.00691,0.004 a 0.01595866,0.01595866 0 0 0 -0.00126,9.4e-4 l -0.00644,0.005 a 0.01595866,0.01595866 0 0 0 -0.0011,0.001 l -0.0044,0.004 a 0.01595706,0.01595706 0 0 0 -4.712e-4,0.0225 0.01595706,0.01595706 0 0 0 0.022459,4.8e-4 l 0.00393,-0.004 0.00518,-0.004 0.00565,-0.004 0.00581,-0.003 4.712e-4,-1.6e-4 a 0.01595706,0.01595706 0 0 0 0.00895,-0.0207 0.01595706,0.01595706 0 0 0 -0.013978,-0.0101 z m 0.1521889,0.0223 a 0.01595706,0.01595706 0 0 0 -0.013664,0.0118 0.01595706,0.01595706 0 0 0 0.011308,0.0195 l 0.030783,0.008 a 0.01595706,0.01595706 0 0 0 0.019632,-0.0113 0.01595706,0.01595706 0 0 0 -0.011308,-0.0195 l -0.030783,-0.008 a 0.01595706,0.01595706 0 0 0 -0.00597,-4.9e-4 z m 0.09235,0.0248 a 0.01595706,0.01595706 0 0 0 -0.013507,0.0118 0.01595706,0.01595706 0 0 0 0.011308,0.0195 l 0.030783,0.008 a 0.01595706,0.01595706 0 0 0 0.019632,-0.0113 0.01595706,0.01595706 0 0 0 -0.011308,-0.0196 l -0.03094,-0.008 a 0.01595706,0.01595706 0 0 0 -0.00597,-4.8e-4 z m -0.2973103,0.0276 a 0.01595706,0.01595706 0 0 0 -0.016648,0.0118 l -0.00817,0.0309 a 0.01595706,0.01595706 0 0 0 0.011308,0.0195 0.01595706,0.01595706 0 0 0 0.019475,-0.0113 l 0.00832,-0.0308 a 0.01595706,0.01595706 0 0 0 -0.011308,-0.0195 0.01595706,0.01595706 0 0 0 -0.00298,-6.5e-4 z m -0.024815,0.0925 a 0.01595706,0.01595706 0 0 0 -0.016491,0.0118 l -0.00832,0.0309 a 0.01595706,0.01595706 0 0 0 0.011308,0.0195 0.01595706,0.01595706 0 0 0 0.019475,-0.0113 l 0.00832,-0.0308 a 0.01595706,0.01595706 0 0 0 -0.011308,-0.0196 0.01595706,0.01595706 0 0 0 -0.00298,-4.8e-4 z m -0.027799,0.0925 a 0.01595706,0.01595706 0 0 0 -0.013507,0.0118 l -0.00832,0.0308 a 0.01595706,0.01595706 0 0 0 0.011308,0.0196 0.01595706,0.01595706 0 0 0 0.019632,-0.0113 l 0.00817,-0.0308 a 0.01595706,0.01595706 0 0 0 -0.011308,-0.0196 0.01595706,0.01595706 0 0 0 -0.00597,-4.8e-4 z"
         id="rect824-9-2-6" />
      <path
         style="color:#000000;font-style:normal;font-variant:normal;font-weight:normal;font-stretch:normal;font-size:medium;line-height:normal;font-family:sans-serif;font-variant-ligatures:normal;font-variant-position:normal;font-variant-caps:normal;font-variant-numeric:normal;font-variant-alternates:normal;font-variant-east-asian:normal;font-feature-settings:normal;font-variation-settings:normal;text-indent:0;text-align:start;text-decoration:none;text-decoration-line:none;text-decoration-style:solid;text-decoration-color:#000000;letter-spacing:normal;word-spacing:normal;text-transform:none;writing-mode:lr-tb;direction:ltr;text-orientation:mixed;dominant-baseline:auto;baseline-shift:baseline;text-anchor:start;white-space:normal;shape-padding:0;shape-margin:0;inline-size:0;clip-rule:nonzero;display:inline;overflow:visible;visibility:visible;isolation:auto;mix-blend-mode:normal;color-interpolation:sRGB;color-interpolation-filters:linearRGB;solid-color:#000000;solid-opacity:1;vector-effect:none;fill:#000000;fill-opacity:1;fill-rule:nonzero;stroke:none;stroke-width:0.999999;stroke-linecap:round;stroke-linejoin:round;stroke-miterlimit:4;stroke-dasharray:0.397, 0.794;stroke-dashoffset:1.985;stroke-opacity:1;paint-order:normal;color-rendering:auto;image-rendering:auto;shape-rendering:auto;text-rendering:auto;enable-background:accumulate;stop-color:#000000"
         d="m 2.0087561,295.39176 a 0.01596209,0.01596209 0 0 0 -0.013978,0.0177 0.01596209,0.01596209 0 0 0 0.017748,0.014 c 0.00842,-10e-4 0.017188,-3.2e-4 0.0256,0.002 a 0.01596209,0.01596209 0 0 0 0.019632,-0.0113 0.01596209,0.01596209 0 0 0 -0.011308,-0.0195 c -0.012139,-0.003 -0.024977,-0.004 -0.037694,-0.003 z m 0.093292,0.0189 a 0.01596209,0.01596209 0 0 0 -0.013507,0.0118 0.01596209,0.01596209 0 0 0 0.011308,0.0196 l 0.030783,0.008 a 0.01596209,0.01596209 0 0 0 0.019632,-0.0113 0.01596209,0.01596209 0 0 0 -0.011308,-0.0195 l -0.03094,-0.008 a 0.01596209,0.01596209 0 0 0 -0.00597,-4.9e-4 z m -0.1471631,0.0104 a 0.01596209,0.01596209 0 0 0 -0.011465,0.006 c -0.00822,0.01 -0.014633,0.0207 -0.01869,0.0328 a 0.01596209,0.01596209 0 0 0 0.010052,0.0203 0.01596209,0.01596209 0 0 0 0.02026,-0.0101 c 0.00272,-0.008 0.00713,-0.0157 0.012722,-0.0223 a 0.01596209,0.01596209 0 0 0 -0.00188,-0.0226 0.01596209,0.01596209 0 0 0 -0.010994,-0.004 z m 0.23967,0.0145 a 0.01596209,0.01596209 0 0 0 -0.013507,0.0118 0.01596209,0.01596209 0 0 0 0.011308,0.0195 l 0.030783,0.008 a 0.01596209,0.01596209 0 0 0 0.019632,-0.0113 0.01596209,0.01596209 0 0 0 -0.011308,-0.0195 l -0.03094,-0.008 a 0.01596209,0.01596209 0 0 0 -0.00597,-4.8e-4 z m 0.092507,0.0248 a 0.01596209,0.01596209 0 0 0 -0.013507,0.0118 0.01596209,0.01596209 0 0 0 0.011308,0.0195 l 0.030783,0.008 a 0.01596209,0.01596209 0 0 0 0.019632,-0.0113 0.01596209,0.01596209 0 0 0 -0.011308,-0.0196 l -0.030783,-0.008 a 0.01596209,0.01596209 0 0 0 -0.00613,-4.9e-4 z m -0.3628033,0.0499 a 0.01596209,0.01596209 0 0 0 -0.016491,0.0118 l -0.00832,0.0309 a 0.01596209,0.01596209 0 0 0 0.011308,0.0195 0.01596209,0.01596209 0 0 0 0.019632,-0.0113 l 0.00817,-0.0308 a 0.01596209,0.01596209 0 0 0 -0.011308,-0.0196 0.01596209,0.01596209 0 0 0 -0.00298,-4.8e-4 z m -0.024658,0.0925 a 0.01596209,0.01596209 0 0 0 -0.016648,0.0118 l -0.00832,0.0309 a 0.01596209,0.01596209 0 0 0 0.011308,0.0195 0.01596209,0.01596209 0 0 0 0.019632,-0.0113 l 0.00817,-0.0308 a 0.01596209,0.01596209 0 0 0 -0.011151,-0.0196 0.01596209,0.01596209 0 0 0 -0.00298,-4.8e-4 z m -0.024815,0.0925 a 0.01596209,0.01596209 0 0 0 -0.016648,0.0118 l -0.00817,0.0309 a 0.01596209,0.01596209 0 0 0 0.011151,0.0195 0.01596209,0.01596209 0 0 0 0.019632,-0.0113 l 0.00832,-0.0308 a 0.01596209,0.01596209 0 0 0 -0.011308,-0.0196 0.01596209,0.01596209 0 0 0 -0.00298,-4.8e-4 z"
         id="rect824-9-2-6-3" />
    </g>
    <path
       sodipodi:nodetypes="cccccc"
       inkscape:connector-curvature="0"
       id="path2507-4"
       d="m 0.26458333,294.35415 v 2.11667 l 0.26458334,-0.26459 0.26458333,0.26459 v -2.11667 z"
       style="fill:url(#linearGradient2515-7);fill-opacity:1.0;stroke:none;stroke-width:0.26458332px;stroke-linecap:butt;stroke-linejoin:miter;stroke-opacity:1" />
    <text
       xml:space="preserve"
       style="font-size:0.449388px;line-height:1.25;font-family:Contemporary;-inkscape-font-specification:Contemporary;stroke-width:0.264583"
       x="2.5138156"
       y="295.69745"
       id="text2049"><tspan
         sodipodi:role="line"
         id="tspan2047"
         x="2.5138156"
         y="295.69745"
         style="stroke-width:0.264583">the-libs</tspan></text>
    <text
       xml:space="preserve"
       style="font-size:0.209701px;line-height:1.25;font-family:Contemporary;-inkscape-font-specification:Contemporary;stroke-width:0.264583"
       x="2.521153"
       y="296.02094"
       id="text2053"><tspan
         sodipodi:role="line"
         id="tspan2051"
         x="2.521153"
         y="296.02094"
         style="stroke-width:0.264583">Common Libraries</tspan></text>
    <path
       sodipodi:nodetypes="cccccc"
       inkscape:connector-curvature="0"
       id="path2507-4-6"
       d="m 0.31230552,294.28794 v 2.07221 l 0.21686115,-0.21623 0.21686113,0.21623 v -2.07221 z"
       style="fill:none;fill-opacity:1;stroke:#000000;stroke-width:0.0269875;stroke-linecap:round;stroke-linejoin:round;stroke-miterlimit:4;stroke-dasharray:0.0269875, 0.053975;stroke-dashoffset:0;stroke-opacity:1" />
  </g>
</svg>
